<svg width="171" height="171" viewBox="0 0 171 171" fill="none" xmlns="http://www.w3.org/2000/svg">
<circle cx="85.5" cy="85.5" r="85.5" fill="white"/>
<path d="M63.2383 85.7695C59.8984 85.7695 56.2852 86.1797 52.3984 87C52.8281 84.1289 53.1406 81.0723 53.3359 77.8301C53.5508 74.5684 53.6582 71.082 53.6582 67.3711C53.6582 62.0977 53.5508 57.7031 53.3359 54.1875C53.1406 50.6719 52.8867 48.0547 52.5742 46.3359L52.3984 45.3398C53.5898 45.2031 54.7715 44.9297 55.9434 44.5195C57.1348 44.0898 58.4141 43.4941 59.7812 42.7324C61.0117 43.1426 62.2129 43.4941 63.3848 43.7871C64.5566 44.0801 65.8945 44.2266 67.3984 44.2266C69.957 44.2266 72.7598 43.7285 75.8066 42.7324C74.3809 45.3105 73.5996 47.7715 73.4629 50.1152C69.8301 49.9199 66.793 48.9336 64.3516 47.1562C63.1797 46.2578 62.2031 45.4961 61.4219 44.8711C60.6602 44.2266 60.084 43.709 59.6934 43.3184C58.873 48.6895 58.4629 55.1445 58.4629 62.6836V63.2109C63.8535 62.9375 68.4629 61.834 72.291 59.9004C71.9004 60.6426 71.5098 61.6582 71.1191 62.9473C70.748 64.2168 70.4844 65.6621 70.3281 67.2832L69.5371 67.0488C67.3105 66.3848 64.0195 66.0527 59.6641 66.0527H58.4922C58.5703 74.0605 58.8926 79.627 59.459 82.752C60.0449 82.9082 60.5039 82.9863 60.8359 82.9863C67.5547 82.9863 73.1211 81.8633 77.5352 79.6172C77.1836 80.3008 76.8125 81.2285 76.4219 82.4004C76.0508 83.5527 75.7676 85.0859 75.5723 87L74.8105 86.7656C72.6816 86.1016 68.8242 85.7695 63.2383 85.7695Z" fill="black"/>
<path d="M103.133 87C103.562 84.0117 103.885 81.1895 104.1 78.5332C104.314 75.877 104.422 73.3672 104.422 71.0039C104.422 68.1328 104.305 65.4473 104.07 62.9473C103.855 60.4473 103.602 58.1523 103.309 56.0625L103.133 55.0664C104.324 54.9297 105.506 54.6562 106.678 54.2461C107.869 53.8164 109.08 53.2598 110.311 52.5762L110.516 52.459C110.066 55.4277 109.725 58.0938 109.49 60.457C109.275 62.8008 109.168 64.8906 109.168 66.7266C109.168 66.9805 109.168 67.2246 109.168 67.459C109.168 67.6934 109.178 67.918 109.197 68.1328C109.393 72.2344 109.559 75.5059 109.695 77.9473C109.852 80.3887 109.998 82.0391 110.135 82.8984L111.482 83.5723C113.416 84.0801 115.213 84.334 116.873 84.334C118.611 84.334 120.223 84.0703 121.707 83.543C123.191 83.0156 124.559 82.2344 125.809 81.1992C126.57 80.0859 127.127 79.002 127.479 77.9473C127.85 76.873 128.035 75.8086 128.035 74.7539C128.035 72.5469 127.469 70.7109 126.336 69.2461C125.203 67.7812 123.562 66.8145 121.414 66.3457C120.926 66.248 120.447 66.1992 119.979 66.1992C117.635 66.1992 114.48 67.2148 110.516 69.2461L114.822 61.7754C118.865 59.9395 120.887 57.0098 120.887 52.9863C120.887 51.5801 120.359 50.418 119.305 49.5C118.27 48.582 116.717 48.123 114.646 48.123C113.67 48.1426 112.586 48.2695 111.395 48.5039C110.203 48.7188 108.963 49.0508 107.674 49.5C106.404 49.9492 105.105 50.5156 103.777 51.1992C102.469 51.8828 101.199 52.6934 99.9688 53.6309L101.902 45.9551C103.309 45.3887 104.402 44.959 105.184 44.666C105.965 44.3535 106.463 44.1582 106.678 44.0801C108.084 43.6309 109.48 43.2891 110.867 43.0547C112.254 42.8008 113.621 42.6738 114.969 42.6738C116.336 42.6738 117.527 42.8008 118.543 43.0547C119.559 43.3086 120.408 43.6602 121.092 44.1094C122.557 45.1055 123.65 46.2188 124.373 47.4492C125.096 48.6797 125.457 49.998 125.457 51.4043C125.438 52.498 125.203 53.5527 124.754 54.5684C124.324 55.5645 123.768 56.4824 123.084 57.3223C122.4 58.1621 121.639 58.9043 120.799 59.5488C119.979 60.1738 119.168 60.6426 118.367 60.9551C118.699 60.916 119.031 60.8867 119.363 60.8672C119.695 60.8281 120.018 60.8086 120.33 60.8086C121.834 60.8086 123.201 61.0039 124.432 61.3945C125.682 61.7852 126.795 62.3027 127.771 62.9473C128.748 63.5918 129.598 64.3438 130.32 65.2031C131.043 66.043 131.639 66.9219 132.107 67.8398C132.576 68.7578 132.928 69.6758 133.162 70.5938C133.396 71.5117 133.514 72.3711 133.514 73.1719C133.514 74.168 133.426 75.0762 133.25 75.8965C133.074 76.7168 132.908 77.3516 132.752 77.8008C132.186 79.5 131.434 80.9453 130.496 82.1367C129.578 83.3281 128.543 84.2949 127.391 85.0371C126.258 85.7793 125.027 86.3164 123.699 86.6484C122.391 86.9805 121.053 87.1465 119.686 87.1465C118.865 87.1465 118.201 87.127 117.693 87.0879C117.186 87.0488 116.902 87.0195 116.844 87L110.516 84.3047C109.695 84.4023 108.904 84.5586 108.143 84.7734C107.4 84.9688 106.707 85.1934 106.062 85.4473C105.438 85.7012 104.871 85.9648 104.363 86.2383C103.855 86.5117 103.445 86.7656 103.133 87Z" fill="black"/>
<path d="M104.455 125.85C104.357 126.182 104.27 126.416 104.191 126.553C103.02 129.131 101.76 131.094 100.412 132.441C99.3965 133.477 98.5859 134.277 97.9805 134.844C97.375 135.41 96.9648 135.762 96.75 135.898L90.2168 140C89.1035 139.707 87.7949 139.189 86.291 138.447C84.8066 137.686 83.3125 136.719 81.8086 135.547C80.3242 134.375 78.9473 133.008 77.6777 131.445C76.4082 129.883 75.4414 128.145 74.7773 126.23C74.2695 124.746 73.8691 123.33 73.5762 121.982C73.3027 120.615 73.1758 119.248 73.1953 117.881C73.1953 116.201 73.4199 114.482 73.8691 112.725C74.3379 110.967 74.9727 109.277 75.7734 107.656C76.5938 106.035 77.5605 104.551 78.6738 103.203C79.7871 101.836 80.998 100.703 82.3066 99.8047L88.8105 95.6152C89.3574 95.7715 90.0215 96.0059 90.8027 96.3184C91.584 96.6309 92.4531 97.0508 93.4102 97.5781C94.3672 98.1055 95.373 98.75 96.4277 99.5117C97.502 100.273 98.5859 101.182 99.6797 102.236C100.285 102.861 100.842 103.506 101.35 104.17L95.5195 107.041C94.6406 105.928 93.7422 104.98 92.8242 104.199C91.9062 103.398 90.9297 102.725 89.8945 102.178C88.8594 101.611 87.7461 101.152 86.5547 100.801C85.3828 100.43 84.084 100.117 82.6582 99.8633L82.6289 99.8926C80.9492 100.869 79.6699 103.457 78.791 107.656C78.2051 110.469 77.9121 112.998 77.9121 115.244C77.9121 116.475 78.0391 117.783 78.293 119.17C78.5469 120.557 78.957 121.943 79.5234 123.33C80.1094 124.697 80.8711 126.045 81.8086 127.373C82.7461 128.682 83.8984 129.893 85.2656 131.006C86.6328 132.119 88.2344 133.096 90.0703 133.936C91.9062 134.775 94.0156 135.41 96.3984 135.84C98.2148 134.238 99.123 131.719 99.123 128.281C99.123 126.699 98.9277 125.215 98.5371 123.828L104.455 125.85Z" fill="black"/>
<path d="M86 16V90.5" stroke="black" stroke-width="1.5"/>
<path d="M21 128.25L85.5189 91" stroke="black" stroke-width="1.5"/>
<path d="M150.519 128.25L85.9999 91" stroke="black" stroke-width="1.5"/>
<path d="M21 128L86 16.5L150.5 128H21Z" stroke="black" stroke-width="1.5"/>
</svg>
